<svg width="18" height="18" viewBox="0 0 18 18" fill="none" xmlns="http://www.w3.org/2000/svg">
<path fill-rule="evenodd" clip-rule="evenodd" d="M10.3126 4.06248H7.68756V2.75H6.56256V4.06248H5.25006C4.59422 4.06248 4.06256 4.59415 4.06256 5.24998V6.56249H2.75V7.68749H4.06256V10.3125H2.75V11.4375H4.06256V12.75C4.06256 13.4058 4.59422 13.9375 5.25006 13.9375H6.56256V15.25H7.68756V13.9375H10.3126V15.25H11.4376V13.9375H12.7501C13.4059 13.9375 13.9376 13.4058 13.9376 12.75V11.4375H15.25V10.3125H13.9376V7.68749H15.25V6.56249H13.9376V5.24998C13.9376 4.59415 13.4059 4.06248 12.7501 4.06248H11.4376V2.75H10.3126V4.06248ZM5.25006 5.18748C5.21554 5.18748 5.18756 5.21547 5.18756 5.24998V12.75C5.18756 12.7845 5.21554 12.8125 5.25006 12.8125H12.7501C12.7846 12.8125 12.8126 12.7845 12.8126 12.75V5.24998C12.8126 5.21547 12.7846 5.18748 12.7501 5.18748H5.25006Z" fill="black" fill-opacity="0.85"/>
</svg>
