<svg width="18" height="18" viewBox="0 0 18 18" fill="none" xmlns="http://www.w3.org/2000/svg">
<path fill-rule="evenodd" clip-rule="evenodd" d="M3.02805 8.9998C3.02805 5.70163 5.70175 3.02793 8.99993 3.02793C12.2981 3.02793 14.9718 5.70163 14.9718 8.9998C14.9718 12.298 12.2981 14.9717 8.99993 14.9717C5.70175 14.9717 3.02805 12.298 3.02805 8.9998ZM8.99993 1.84668C5.04936 1.84668 1.8468 5.04924 1.8468 8.9998C1.8468 12.9504 5.04936 16.1529 8.99993 16.1529C12.9505 16.1529 16.1531 12.9504 16.1531 8.9998C16.1531 5.04924 12.9505 1.84668 8.99993 1.84668ZM8.99995 5.58719C7.11528 5.58719 5.58745 7.11502 5.58745 8.99969C5.58745 10.8844 7.11528 12.4122 8.99995 12.4122C10.8846 12.4122 12.4125 10.8844 12.4125 8.99969C12.4125 7.11502 10.8846 5.58719 8.99995 5.58719ZM4.4062 8.99969C4.4062 6.46264 6.4629 4.40594 8.99995 4.40594C11.537 4.40594 13.5937 6.46264 13.5937 8.99969C13.5937 11.5368 11.537 13.5934 8.99995 13.5934C6.4629 13.5934 4.4062 11.5368 4.4062 8.99969ZM9.97441 8.02532C9.71596 7.76687 9.36543 7.62168 8.99993 7.62168V6.44043C9.67871 6.44043 10.3297 6.71008 10.8097 7.19005C11.2897 7.67003 11.5593 8.32102 11.5593 8.9998H10.3781C10.3781 8.6343 10.2329 8.28377 9.97441 8.02532Z" fill="black" fill-opacity="0.85"/>
</svg>
