<svg width="18" height="18" viewBox="0 0 18 18" fill="none" xmlns="http://www.w3.org/2000/svg">
<path fill-rule="evenodd" clip-rule="evenodd" d="M7.875 2.25C7.46079 2.25 7.125 2.58579 7.125 3H5.05542C4.22699 3 3.55542 3.67157 3.55542 4.5V14.5C3.55542 15.3284 4.22699 16 5.05542 16H13.0554C13.8838 16 14.5554 15.3284 14.5554 14.5V4.5C14.5554 3.67157 13.8838 3 13.0554 3H10.875C10.875 2.58579 10.5392 2.25 10.125 2.25H7.875ZM13.0554 4.125H5.05542C4.84831 4.125 4.68042 4.29289 4.68042 4.5V14.5C4.68042 14.7071 4.84831 14.875 5.05542 14.875H13.0554C13.2625 14.875 13.4304 14.7071 13.4304 14.5V4.5C13.4304 4.29289 13.2625 4.125 13.0554 4.125ZM9.66125 5.99112C9.75997 5.86772 9.95778 5.96117 9.92515 6.11579L9.37489 8.72369H11.4916C11.6167 8.72369 11.6868 8.86782 11.6096 8.96626L8.41785 13.0359C8.32197 13.1581 8.12631 13.0719 8.15186 12.9186L8.55542 10.4983H6.36752C6.24174 10.4983 6.17182 10.3528 6.25039 10.2546L9.66125 5.99112Z" fill="black" fill-opacity="0.85"/>
</svg>
