<svg width="18" height="18" viewBox="0 0 18 18" fill="none" xmlns="http://www.w3.org/2000/svg">
<path fill-rule="evenodd" clip-rule="evenodd" d="M3.75002 2.49414C3.41685 2.49414 3.09731 2.6265 2.86172 2.86209C2.62613 3.09768 2.49377 3.41721 2.49377 3.75039V14.9066V15.5066H3.09377H14.25C14.5832 15.5066 14.9027 15.3743 15.1383 15.1387C15.3739 14.9031 15.5063 14.5836 15.5063 14.2504V3.75039C15.5063 3.41721 15.3739 3.09768 15.1383 2.86209C14.9027 2.62649 14.5832 2.49414 14.25 2.49414H3.75002ZM3.71025 3.71062C3.7208 3.70007 3.73511 3.69414 3.75002 3.69414H14.25C14.2649 3.69414 14.2793 3.70007 14.2898 3.71062C14.3003 3.72116 14.3063 3.73547 14.3063 3.75039V14.2504C14.3063 14.2653 14.3003 14.2796 14.2898 14.2902C14.2793 14.3007 14.2649 14.3066 14.25 14.3066H3.69377V3.75039C3.69377 3.73547 3.6997 3.72116 3.71025 3.71062ZM12.2813 5.11914H9.00002V6.31914H10.8327L6.31877 10.8331V9.00039H5.11877V12.2816C5.11877 12.613 5.3874 12.8816 5.71877 12.8816H9.00002V11.6816H7.1673L11.6813 7.16767V9.00039H12.8813V5.71914C12.8813 5.38777 12.6126 5.11914 12.2813 5.11914Z" fill="black" fill-opacity="0.85"/>
</svg>
