<svg width="24" height="24" viewBox="0 0 24 24" fill="none" xmlns="http://www.w3.org/2000/svg">
<path fill-rule="evenodd" clip-rule="evenodd" d="M4.06217 4.97075C4.09078 4.97075 4.1198 4.97076 4.14915 4.97076C4.63413 4.97085 5.20869 4.97096 5.48388 4.9707H15.199C15.5969 4.97109 15.9783 5.12931 16.2597 5.41065C16.541 5.69198 16.6992 6.07345 16.6996 6.47132V7.34022H19.5431C19.776 7.34076 20.0055 7.39523 20.2138 7.49934C20.4221 7.60345 20.6035 7.75438 20.7437 7.94031L22.7183 10.5732C22.9125 10.8332 23.0177 11.1489 23.0183 11.4734V16.6605H21.4067C21.3327 17.3125 21.0213 17.9143 20.5319 18.3513C20.0425 18.7884 19.4094 19.0299 18.7533 19.0299C18.0971 19.0299 17.464 18.7884 16.9746 18.3513C16.4852 17.9143 16.1738 17.3125 16.0998 16.6605H11.929C11.855 17.3125 11.5435 17.9145 11.054 18.3515C10.5646 18.7885 9.93136 19.0301 9.27519 19.0301C8.61901 19.0301 7.98579 18.7885 7.49633 18.3515C7.00687 17.9145 6.69542 17.3125 6.62139 16.6605H4.06217V15.2382H6.83432C7.04561 14.7676 7.38841 14.3682 7.82146 14.0879C8.25452 13.8076 8.75935 13.6585 9.27519 13.6585C9.79102 13.6585 10.2959 13.8076 10.7289 14.0879C11.162 14.3682 11.5048 14.7676 11.7161 15.2382H15.278V6.47132C15.278 6.45036 15.2697 6.43026 15.2549 6.41544C15.24 6.40062 15.2199 6.39228 15.199 6.39226H4.06217V4.97075ZM19.4551 17.3946C19.2474 17.5335 19.0031 17.6077 18.7533 17.6077C18.4182 17.6074 18.097 17.4742 17.8601 17.2373C17.6232 17.0005 17.4899 16.6793 17.4894 16.3443C17.4894 16.0944 17.5635 15.8502 17.7023 15.6424C17.8411 15.4347 18.0384 15.2727 18.2693 15.1771C18.5001 15.0814 18.7541 15.0564 18.9992 15.1051C19.2443 15.1538 19.4694 15.2741 19.6461 15.4508C19.8228 15.6274 19.9432 15.8525 19.992 16.0976C20.0408 16.3426 20.0158 16.5967 19.9202 16.8275C19.8247 17.0584 19.6628 17.2558 19.4551 17.3946ZM20.2059 14.0894C19.7731 13.8093 19.2688 13.6597 18.7533 13.6585C18.3602 13.66 17.9723 13.7482 17.6173 13.9169C17.2623 14.0856 16.9489 14.3307 16.6996 14.6346V8.76177H19.5431L21.5806 11.426L21.5941 15.2382H21.1938C20.9816 14.7684 20.6387 14.3695 20.2059 14.0894ZM9.97711 17.3948C9.76934 17.5336 9.52507 17.6077 9.27519 17.6077C8.94023 17.6073 8.61912 17.4741 8.38228 17.2372C8.14543 17.0004 8.01218 16.6793 8.01175 16.3443C8.01175 16.0944 8.08585 15.8502 8.22468 15.6424C8.36351 15.4346 8.56083 15.2727 8.79169 15.177C9.02255 15.0814 9.27659 15.0564 9.52167 15.1052C9.76675 15.1539 9.99188 15.2742 10.1686 15.4509C10.3453 15.6276 10.4656 15.8527 10.5143 16.0978C10.5631 16.3429 10.5381 16.5969 10.4424 16.8278C10.3468 17.0587 10.1849 17.256 9.97711 17.3948Z" fill="black" fill-opacity="0.85"/>
<path fill-rule="evenodd" clip-rule="evenodd" d="M11.3338 12.316V7.92383H10.2523C10.2523 8.29177 10.1283 8.56834 9.94059 8.73294C9.74481 8.89717 9.44764 8.97153 9.10323 8.97153H8.96802V9.85028H10.1171V12.316H11.3338Z" fill="#F50514"/>
<path fill-rule="evenodd" clip-rule="evenodd" d="M0.981777 10.1834H5.95776V8.76172H0.981777V10.1834Z" fill="black" fill-opacity="0.85"/>
<path fill-rule="evenodd" clip-rule="evenodd" d="M2.40349 13.0272H5.95776V11.6055H2.40349V13.0272Z" fill="black" fill-opacity="0.85"/>
</svg>
