<svg width="68" height="16" viewBox="0 0 68 16" fill="none" xmlns="http://www.w3.org/2000/svg">
<path d="M14.1709 13.8796H16.2777L17.9292 7.90234H15.8441L14.1709 13.8796Z" fill="#004A7F"/>
<path d="M24.9727 13.8796H27.0794L28.731 7.90234H26.6242L24.9727 13.8796Z" fill="#004A7F"/>
<path d="M35.793 13.8796H37.8791L39.511 7.90234H37.4043L35.793 13.8796Z" fill="#004A7F"/>
<path d="M23.01 9.94831H25.1167C25.4057 8.60509 24.518 7.92346 22.4526 7.92346C20.0568 7.92346 18.4465 9.0662 17.8891 11.0118C17.4133 12.8162 18.3846 13.8998 20.6348 13.8998C22.9067 13.8998 24.2486 13.2181 24.8071 11.6734H22.7003C22.3906 12.3551 21.8539 12.6959 21.1107 12.6959C20.0981 12.6959 19.6852 12.0944 19.9948 10.9517C20.3251 9.76787 21.1107 9.10629 22.1222 9.10629C22.7829 9.10629 23.0719 9.38696 23.01 9.94831" fill="#004A7F"/>
<path d="M33.8319 9.94831H35.9386C36.2277 8.60509 35.3183 7.92346 33.2528 7.92346C30.8777 7.92346 29.2468 9.0662 28.71 11.0118C28.2145 12.8162 29.1848 13.8998 31.4361 13.8998C33.6874 13.8998 35.0293 13.2181 35.6073 11.6734H33.5016C33.2115 12.3551 32.6541 12.6959 31.9109 12.6959C30.8993 12.6959 30.4865 12.0944 30.8157 10.9517C31.1264 9.76787 31.9109 9.10629 32.9225 9.10629C33.5841 9.10629 33.8938 9.38696 33.8319 9.94831" fill="#004A7F"/>
<path d="M6.05466 4.59454C8.86333 1.88707 12.2707 1.18439 13.6343 3.0298C14.9978 4.87522 13.7994 8.60514 10.9907 11.3126C8.18207 14.0401 4.77471 14.7418 3.3905 12.8764C2.04861 11.0119 3.24702 7.30102 6.05466 4.59454" fill="#F06321"/>
<path d="M7.91374 3.1501C7.60408 3.37063 7.29441 3.63125 6.98474 3.91292C4.52702 6.27858 3.49376 9.52735 4.71282 11.1522C5.97213 12.7761 8.98724 12.1747 11.5069 9.78798C12.8705 8.50491 13.7788 7.02036 14.1504 5.63705C14.2536 4.6146 14.1091 3.71144 13.6343 3.02981C12.5608 1.58636 10.2476 1.70564 7.91374 3.1501" fill="#AE282E"/>
<path d="M11.4656 3.45071V3.51085C11.445 3.85167 11.2385 4.27267 10.8669 4.63354C10.3095 5.15478 9.56633 5.35526 9.25563 5.05555C8.90468 4.73478 9.11217 4.0321 9.66956 3.47076C10.2476 2.92946 10.9908 2.74903 11.3005 3.0698C11.4037 3.17004 11.4656 3.29032 11.4656 3.45071V3.45071ZM9.3186 12.6557C7.99632 13.618 6.63379 14.1002 5.31152 13.8997C5.86892 13.9198 6.32413 13.3173 6.69572 12.5154C7.06733 11.6934 7.27377 10.9316 7.45956 10.2089C7.72794 9.06614 7.74859 8.26422 7.60408 8.08379C7.37699 7.80212 6.88152 7.86326 6.30245 8.18403C6.01343 8.34441 5.64183 8.24417 6.07639 7.72293C6.53057 7.20168 8.28535 5.9577 8.90468 5.75722C9.60762 5.57679 10.3921 5.83742 10.1237 6.57919C9.93691 7.12049 7.50086 13.2973 9.3186 12.6557" fill="white"/>
<path d="M42.6706 12.9365L43.1454 11.2124H44.3015V10.2901H43.4138L43.8267 8.82565H44.3015V7.92249H42.7315L41.1006 13.8998H44.3015V12.9365H42.6706ZM44.3015 11.2124H44.5286C45.5825 11.2124 46.078 11.3928 45.8715 12.0945C45.7064 12.716 45.1903 12.9365 44.3015 12.9365V13.8998C45.1696 13.8998 45.8096 13.8196 46.4496 13.3976C46.8831 13.1169 47.1938 12.6959 47.3177 12.2148C47.5437 11.3928 47.1721 10.8304 46.2018 10.7112C47.1102 10.5508 47.6893 10.0887 47.874 9.36694C48.0392 8.82564 47.8946 8.42469 47.5024 8.16406C47.1721 7.94354 46.6147 7.92249 45.8715 7.92249H44.3015V8.82565H45.1077C46.0986 8.82565 46.5528 8.94593 46.4083 9.54737C46.2225 10.1288 45.6857 10.2901 44.6741 10.2901H44.3015V11.2124Z" fill="#004A7F"/>
<path d="M50.0841 9.70876V10.4495C49.919 10.5307 49.7744 10.6711 49.7125 10.8715H48.4739C48.6793 10.2902 49.2377 9.88819 50.0841 9.70876ZM50.0841 13.2182C49.9396 13.2582 49.7744 13.2783 49.6093 13.2783C49.0519 13.2783 48.8042 13.0568 48.928 12.6558C49.0519 12.1947 49.4235 12.0343 50.0841 11.9742V11.2725C48.6586 11.3727 47.8741 11.7336 47.6264 12.6358C47.3993 13.4577 47.9371 14 49.0519 14C49.4235 14 49.7744 13.9399 50.0841 13.8196V13.2182ZM51.2825 11.9742L51.2618 12.0343C51.0967 12.6558 50.6621 13.0778 50.0841 13.2182V13.8196C50.3938 13.6983 50.6621 13.5389 50.9099 13.3184L50.8067 13.8998H52.0463C52.1083 13.6181 52.1702 13.2973 52.2528 12.9766L52.7276 11.2925C52.7689 11.1522 52.7896 11.0119 52.7896 10.8715V10.6711C52.7483 9.98843 52.1496 9.62756 51.0348 9.62756C50.6828 9.62756 50.3731 9.66766 50.0841 9.70876V10.4495C50.2699 10.3503 50.497 10.3102 50.787 10.3102C51.426 10.3102 51.6748 10.5899 51.4879 11.1923L51.4683 11.2524H50.8066C50.5599 11.2524 50.3112 11.2725 50.0841 11.2725V11.9742L51.2825 11.9742Z" fill="#004A7F"/>
<path d="M53.1611 13.8998H54.4215L55.0202 11.7536C55.2266 10.9918 55.9492 10.4495 56.713 10.4495C57.4562 10.4495 57.7256 10.8715 57.4779 11.7136L56.8781 13.8998H58.1385L58.8404 11.3527C59.1294 10.2701 58.572 9.62756 57.3334 9.62756C56.5272 9.62756 55.8872 9.90823 55.3298 10.4696L55.4743 9.7278H54.215C54.0912 10.3894 54.0086 10.7913 53.9663 10.9517L53.1611 13.8998Z" fill="#004A7F"/>
<path d="M59.2534 13.8998H60.4931L61.1124 11.6534L62.7857 13.8998H64.4992L62.5988 11.513L65.1598 9.72778H63.5702L61.195 11.3928L62.1447 7.92346H60.906L59.2534 13.8998Z" fill="#004A7F"/>
</svg>
