<svg width="31" height="16" fill="none" xmlns="http://www.w3.org/2000/svg"><g clip-path="url(#clip0_1769_20235)"><path d="M-1.544-1c0-1.657 1.269-3 2.833-3h28.334c1.564 0 2.833 1.343 2.833 3v18c0 1.657-1.269 3-2.833 3H1.289c-1.564 0-2.833-1.343-2.833-3V-1z" fill="#1F72CD"/><path d="M22.559 4.485l-.583 1.285h1.17l-.587-1.285zm-6.73.796c.11-.052.175-.165.175-.306 0-.138-.068-.238-.178-.285-.1-.052-.254-.058-.401-.058H14.38v.716h1.03c.165 0 .302-.002.419-.067zM2.462 4.485L1.885 5.77H3.04l-.58-1.285zm26.844 8.235H27.67v-.691h1.63c.16 0 .274-.02.342-.08.064-.054.1-.13.1-.21a.255.255 0 00-.103-.214c-.062-.049-.151-.071-.299-.071-.795-.025-1.788.022-1.788-.999 0-.468.327-.96 1.216-.96h1.687v-.642h-1.568c-.473 0-.817.103-1.06.264v-.264h-2.32c-.37 0-.805.084-1.011.264v-.264h-4.142v.264c-.33-.217-.886-.264-1.143-.264h-2.732v.264c-.26-.23-.84-.264-1.194-.264h-3.057l-.7.69-.655-.69H6.305v4.501h4.481l.72-.7.68.7 2.762.002v-1.058h.272c.366.005.798-.008 1.18-.159v1.215h2.278v-1.173h.11c.14 0 .154.005.154.133v1.04h6.921c.44 0 .9-.102 1.154-.288v.288h2.195c.457 0 .903-.058 1.242-.208v-.838c-.205.274-.607.412-1.15.412zm-14.049-1.062H14.2v1.082h-1.647l-1.043-1.068-1.084 1.067H7.068V9.514h3.408l1.042 1.057 1.078-1.057h2.707c.673 0 1.428.17 1.428 1.063 0 .896-.734 1.08-1.475 1.08zm5.084-.147c.12.158.136.305.14.59v.638h-.85v-.403c0-.194.02-.481-.138-.631-.123-.116-.312-.143-.621-.143h-.906v1.178h-.851V9.514h1.956c.429 0 .741.017 1.02.152.267.147.435.349.435.716a.91.91 0 01-.6.859.922.922 0 01.415.27zm3.5-1.33h-1.985v.586h1.936v.659h-1.936v.641l1.984.003v.67h-2.827V9.514h2.827v.667zm2.177 2.558h-1.65v-.691h1.643c.16 0 .275-.02.346-.08.058-.05.1-.123.1-.21a.267.267 0 00-.103-.214c-.065-.049-.155-.071-.302-.071-.792-.025-1.785.022-1.785-.999 0-.467.324-.96 1.212-.96h1.698v.687h-1.554c-.154 0-.254.005-.34.058-.092.052-.127.13-.127.232 0 .122.08.204.186.24.09.028.185.037.33.037l.456.011c.46.01.775.082.967.26.165.155.254.35.254.683 0 .694-.477 1.017-1.331 1.017zm-6.572-2.506c-.102-.055-.253-.058-.404-.058h-1.043v.724h1.03c.164 0 .304-.005.417-.066a.34.34 0 00.176-.31.303.303 0 00-.176-.29zm9.467-.058c-.154 0-.257.005-.343.058-.09.052-.124.13-.124.232 0 .122.076.205.186.24.089.029.185.037.326.037l.46.011c.462.01.772.083.96.26.035.024.056.052.08.08v-.918h-1.545zm-13.627 0h-1.104v.821h1.095c.325 0 .527-.147.528-.426 0-.282-.213-.395-.519-.395zm-7.373 0v.586h1.86v.658h-1.86v.642h2.083l.968-.946-.926-.94H7.912zm5.44 2.255V9.844l-1.301 1.273 1.3 1.313zm-5.37-5.178v.556h7.079l-.003-1.176h.137c.096.003.123.01.123.155v1.02h3.662v-.273c.295.144.754.274 1.358.274h1.54l.33-.717h.731l.322.717h2.968v-.68l.45.68h2.378V3.31h-2.353v.531l-.33-.53H23.96v.53l-.303-.53h-3.263c-.546 0-1.026.069-1.413.262V3.31h-2.252v.263c-.247-.2-.583-.263-.957-.263H7.547l-.552 1.162-.567-1.162h-2.59v.531l-.285-.53h-2.21L.317 5.448v1.71l1.518-3.225h1.258l1.441 3.053V3.934h1.383l1.109 2.188 1.019-2.188h1.41V7.16h-.868l-.003-2.526L7.355 7.16h-.744L5.38 4.631V7.16H3.656l-.325-.72H1.566l-.328.72h-.92v.649h1.447l.326-.717h.731l.326.717h2.848V7.26l.254.55h1.48l.254-.558zM19.138 4.31c.273-.257.702-.376 1.286-.376h.82v.691h-.802c-.31 0-.484.042-.652.191-.145.136-.244.393-.244.73 0 .346.076.595.233.758.13.127.368.166.59.166h.381l1.194-2.536h1.27l1.434 3.05v-3.05h1.29l1.49 2.246V3.934h.867V7.16h-1.2l-1.606-2.42v2.42h-1.726l-.33-.72h-1.76l-.32.72h-.99c-.413 0-.934-.083-1.23-.357-.297-.274-.452-.644-.452-1.23 0-.48.092-.916.457-1.262zm-1.743-.376h.864V7.16h-.864V3.934zm-3.898 0h1.95c.432 0 .751.01 1.025.155.268.144.429.354.429.714 0 .514-.377.78-.597.86a.985.985 0 01.42.27c.119.161.14.304.14.592v.634h-.855l-.003-.407c0-.194.02-.473-.134-.628-.124-.113-.313-.138-.618-.138h-.91v1.173h-.846V3.934zm-3.415 0h2.83v.672H10.93v.58h1.936v.662H10.93v.644h1.983v.667h-2.83V3.934z" fill="#fff"/></g><defs><clipPath id="clip0_1769_20235"><path fill="#fff" transform="translate(.456)" d="M0 0h30v16H0z"/></clipPath></defs></svg>